<svg data-v-0dd9719b="" version="1.0" xmlns="http://www.w3.org/2000/svg" xmlns:xlink="http://www.w3.org/1999/xlink" width="100%" height="100%" viewBox="0 0 340.000000 250.000000" preserveAspectRatio="xMidYMid meet" color-interpolation-filters="sRGB" style="margin: auto;"> <rect data-v-0dd9719b="" x="0" y="0" width="100%" height="100%" fill="#feffff" fill-opacity="1" class="background"></rect> <rect data-v-0dd9719b="" x="0" y="0" width="100%" height="100%" fill="url(#watermark)" fill-opacity="1" class="watermarklayer"></rect> <g data-v-0dd9719b="" fill="#333" class="iconlinesvg-g iconlinesvg" transform="translate(63.79312837123871,99.79424285902434)"><g class="tp-name" transform="translate(0,0)"><g transform="translate(0, 3.413861440072674)"><g data-gra="path-name" fill="#333" transform="scale(1)"><path d="M13.86 0L19.65 0L13.75-29.75L7.78-29.75L1.88 0L7.59 0L8.00-2.07L13.48-2.07ZM12.36-7.66L9.13-7.66L10.74-15.81Z" transform="translate(-1.8781302170283805, 29.787145242070114)"></path></g></g><g transform="translate(21, 3.413861440072674)"><g data-gra="path-name" fill="#333" transform="scale(1)"><path d="M19.65-20.36L19.65-25.09L14.95-29.75L6.54-29.75L1.88-25.09L1.88-4.66L6.54 0L14.95 0L19.65-4.66L19.65-9.39L14.01-9.39L14.01-7.25L12.36-5.63L9.13-5.63L7.51-7.25L7.51-22.50L9.13-24.12L12.36-24.12L14.01-22.50L14.01-20.36Z" transform="translate(-1.8781302170283805, 29.787145242070114)"></path></g></g><g transform="translate(42, 3.413861440072674)"><g data-gra="path-name" fill="#333" transform="scale(1)"><path d="M13.86 0L19.65 0L13.75-29.75L7.78-29.75L1.88 0L7.59 0L8.00-2.07L13.48-2.07ZM12.36-7.66L9.13-7.66L10.74-15.81Z" transform="translate(-1.8781302170283805, 29.787145242070114)"></path></g></g><g transform="translate(63, 3.413861440072674)"><g data-gra="path-name" fill="#333" transform="scale(1)"><path d="M1.88 0L14.95 0L19.61-4.66L19.61-25.09L14.95-29.75L1.88-29.75ZM7.51-24.12L12.36-24.12L13.97-22.50L13.97-7.25L12.36-5.63L7.51-5.63Z" transform="translate(-1.8781302170283805, 29.787145242070114)"></path></g></g><g transform="translate(84, 3.413861440072674)"><g data-gra="path-name" fill="#333" transform="scale(1)"><path d="M19.61 0L19.61-5.63L7.51-5.63L7.51-12.06L13.15-12.06L13.15-17.69L7.51-17.69L7.51-24.12L19.61-24.12L19.61-29.75L1.88-29.75L1.88 0Z" transform="translate(-1.8781302170283805, 29.787145242070114)"></path></g></g><g transform="translate(105, 0)"><g><g class="imagesvg"><g><rect fill="#333" fill-opacity="0" stroke-width="2" x="0" y="0" width="57.62631019414881" height="36.61486812221546" class="image-rect"></rect> <svg filter="url(#colors2161159267)" x="0" y="0" width="57.62631019414881" height="36.61486812221546" filtersec="colorsf4138051702" class="image-svg-svg primary" style="overflow: visible;"><svg xmlns="http://www.w3.org/2000/svg" viewBox="1.2515003681182861 0.002599346451461315 97.49702453613281 61.948204040527344"><g transform="matrix(.69 0 0 .69 15.5 15.5)"><path fill="#333333" d="M85.86 67.32h34.79L81.54-2.95l-27.96 21.6zM22.29-22.46l-42.94 89.78H81.54z"></path></g></svg></svg> <defs><filter id="colors2161159267"><feColorMatrix type="matrix" values="0 0 0 0 0.19921875  0 0 0 0 0.19921875  0 0 0 0 0.19921875  0 0 0 1 0" class="icon-fecolormatrix"></feColorMatrix></filter> <filter id="colorsf4138051702"><feColorMatrix type="matrix" values="0 0 0 0 0.99609375  0 0 0 0 0.99609375  0 0 0 0 0.99609375  0 0 0 1 0" class="icon-fecolormatrix"></feColorMatrix></filter> <filter id="colorsb1113317321"><feColorMatrix type="matrix" values="0 0 0 0 0  0 0 0 0 0  0 0 0 0 0  0 0 0 1 0" class="icon-fecolormatrix"></feColorMatrix></filter></defs></g></g></g></g><g transform="translate(166, 3.413861440072674)"><g data-gra="path-name" fill="#333" transform="scale(1)"><path d="M1.88-29.75L1.88 0L7.51 0L7.51-29.75Z" transform="translate(-1.8781302170283805, 29.787145242070114)"></path></g></g><g transform="translate(175, 3.413861440072674)"><g data-gra="path-name" fill="#333" transform="scale(1)"><path d="M13.86 0L19.65 0L13.75-29.75L7.78-29.75L1.88 0L7.59 0L8.00-2.07L13.48-2.07ZM12.36-7.66L9.13-7.66L10.74-15.81Z" transform="translate(-1.8781302170283805, 29.787145242070114)"></path></g></g><g transform="translate(196, 3.413861440072674)"><g data-gra="path-name" fill="#333" transform="scale(1)"><path d="M18.29 0L13.07-14.87L18.29-29.79L12.32-29.79L10.10-23.36L7.85-29.79L1.88-29.79L7.10-14.87L1.88 0L7.85 0L10.10-6.35L12.32 0Z" transform="translate(-1.8781302170283805, 29.787145242070114)"></path></g></g></g> <g data-gra="path-slogan" fill-rule="" class="tp-slogan" fill="#333" transform="translate(5,42.6148681640625)"><rect x="0" height="1" y="3.4000000953674316" width="8.645004272460938"></rect> <rect height="1" y="3.4000000953674316" width="8.645004272460938" x="193.76499938964844"></rect> <g transform="translate(11.645004272460938,0)"><g transform="scale(1)"><path d="M2.59-6.72L2.59 0L3.55 0L3.55-6.72L5.82-6.72L5.82-7.52L0.32-7.52L0.32-6.72ZM7.18-7.52L7.18 0L8.13 0L8.13-3.54L11.62-3.54L11.62 0L12.59 0L12.59-7.52L11.62-7.52L11.62-4.37L8.13-4.37L8.13-7.52ZM14.65-7.52L14.65 0L19.10 0L19.10-0.81L15.60-0.81L15.60-3.54L18.45-3.54L18.45-4.36L15.60-4.36L15.60-6.72L18.98-6.72L18.98-7.52ZM22.97-7.52L22.97-3.11C22.97-2.50 23.04-1.99 23.18-1.58C23.31-1.17 23.50-0.83 23.74-0.58C23.98-0.32 24.27-0.14 24.60-0.03C24.94 0.08 25.29 0.14 25.67 0.14C26.06 0.14 26.41 0.08 26.74-0.03C27.07-0.14 27.35-0.32 27.59-0.58C27.84-0.83 28.02-1.17 28.16-1.58C28.30-1.99 28.37-2.50 28.37-3.11L28.37-7.52L27.45-7.52L27.45-3.08C27.45-2.63 27.41-2.25 27.31-1.95C27.22-1.64 27.10-1.40 26.94-1.21C26.78-1.03 26.59-0.90 26.37-0.82C26.16-0.74 25.93-0.70 25.67-0.70C25.43-0.70 25.20-0.74 24.99-0.82C24.77-0.90 24.59-1.03 24.43-1.21C24.27-1.40 24.15-1.64 24.06-1.95C23.97-2.25 23.92-2.63 23.92-3.08L23.92-7.52ZM30.40-7.52L30.40 0L34.64 0L34.64-0.81L31.35-0.81L31.35-7.52ZM36.15-6.72L36.15 0L37.11 0L37.11-6.72L39.38-6.72L39.38-7.52L33.88-7.52L33.88-6.72ZM40.74-7.52L40.74 0L41.69 0L41.69-7.52ZM43.75-7.52L43.75 0L44.63 0L44.63-4.14C44.63-4.47 44.62-4.84 44.59-5.25C44.56-5.65 44.53-6.03 44.51-6.36L44.55-6.36L45.15-4.69L46.60-0.76L47.14-0.76L48.59-4.69L49.20-6.36L49.24-6.36C49.21-6.03 49.18-5.65 49.15-5.25C49.13-4.84 49.11-4.47 49.11-4.14L49.11 0L50.02 0L50.02-7.52L48.90-7.52L47.45-3.48L46.93-1.95L46.88-1.95L46.33-3.48L44.87-7.52ZM55.28-3.06L53.02-3.06L53.38-4.21C53.52-4.63 53.65-5.05 53.77-5.46C53.89-5.88 54.01-6.30 54.12-6.74L54.17-6.74C54.29-6.30 54.41-5.88 54.54-5.46C54.66-5.05 54.79-4.63 54.93-4.21ZM55.52-2.29L56.23 0L57.25 0L54.71-7.52L53.63-7.52L51.09 0L52.06 0L52.78-2.29ZM59.42-6.72L59.42 0L60.38 0L60.38-6.72L62.65-6.72L62.65-7.52L57.15-7.52L57.15-6.72ZM64.00-7.52L64.00 0L68.45 0L68.45-0.81L64.96-0.81L64.96-3.54L67.81-3.54L67.81-4.36L64.96-4.36L64.96-6.72L68.34-6.72L68.34-7.52ZM72.38-1.64L71.81-0.97C72.14-0.63 72.53-0.36 72.98-0.16C73.43 0.04 73.92 0.14 74.45 0.14C74.84 0.14 75.20 0.08 75.51-0.03C75.83-0.14 76.09-0.29 76.31-0.49C76.54-0.68 76.71-0.91 76.82-1.17C76.94-1.43 77.00-1.71 77.00-2.01C77.00-2.28 76.96-2.52 76.88-2.73C76.80-2.94 76.69-3.13 76.56-3.28C76.42-3.44 76.25-3.58 76.06-3.70C75.87-3.81 75.67-3.92 75.45-4.01L74.39-4.47C74.24-4.53 74.09-4.60 73.94-4.67C73.80-4.74 73.66-4.83 73.54-4.92C73.42-5.02 73.32-5.13 73.25-5.26C73.18-5.38 73.14-5.54 73.14-5.72C73.14-6.06 73.27-6.33 73.52-6.53C73.78-6.72 74.12-6.82 74.54-6.82C74.89-6.82 75.20-6.76 75.48-6.63C75.76-6.50 76.02-6.33 76.25-6.11L76.76-6.73C76.49-7.00 76.17-7.23 75.79-7.40C75.40-7.57 74.99-7.66 74.54-7.66C74.19-7.66 73.88-7.61 73.59-7.51C73.31-7.41 73.06-7.27 72.85-7.09C72.64-6.91 72.47-6.70 72.35-6.45C72.24-6.21 72.18-5.94 72.18-5.66C72.18-5.39 72.22-5.14 72.31-4.93C72.41-4.72 72.52-4.54 72.67-4.39C72.81-4.24 72.98-4.11 73.16-4.00C73.35-3.89 73.53-3.80 73.70-3.73L74.78-3.26C74.95-3.17 75.12-3.09 75.27-3.01C75.42-2.94 75.56-2.85 75.67-2.76C75.78-2.66 75.87-2.55 75.93-2.41C76.00-2.28 76.03-2.12 76.03-1.93C76.03-1.56 75.89-1.26 75.62-1.04C75.34-0.81 74.95-0.70 74.46-0.70C74.07-0.70 73.69-0.79 73.33-0.96C72.97-1.13 72.65-1.36 72.38-1.64ZM79.81-6.72L79.81 0L80.77 0L80.77-6.72L83.04-6.72L83.04-7.52L77.54-7.52L77.54-6.72ZM84.36-7.52L84.36-3.11C84.36-2.50 84.43-1.99 84.57-1.58C84.70-1.17 84.89-0.83 85.13-0.58C85.38-0.32 85.66-0.14 85.99-0.03C86.33 0.08 86.68 0.14 87.07 0.14C87.45 0.14 87.80 0.08 88.13-0.03C88.46-0.14 88.74-0.32 88.99-0.58C89.23-0.83 89.42-1.17 89.55-1.58C89.69-1.99 89.76-2.50 89.76-3.11L89.76-7.52L88.84-7.52L88.84-3.08C88.84-2.63 88.80-2.25 88.70-1.95C88.61-1.64 88.49-1.40 88.33-1.21C88.17-1.03 87.98-0.90 87.76-0.82C87.55-0.74 87.32-0.70 87.07-0.70C86.82-0.70 86.59-0.74 86.38-0.82C86.16-0.90 85.98-1.03 85.82-1.21C85.67-1.40 85.54-1.64 85.45-1.95C85.36-2.25 85.31-2.63 85.31-3.08L85.31-7.52ZM91.79-7.52L91.79 0L93.71 0C94.28 0 94.78-0.09 95.22-0.26C95.65-0.43 96.02-0.68 96.32-1.00C96.61-1.33 96.84-1.73 96.99-2.19C97.14-2.66 97.22-3.20 97.22-3.79C97.22-4.99 96.92-5.91 96.32-6.56C95.71-7.20 94.83-7.52 93.67-7.52ZM93.60-0.78L92.74-0.78L92.74-6.74L93.60-6.74C94.48-6.74 95.14-6.49 95.58-5.98C96.02-5.48 96.24-4.75 96.24-3.79C96.24-2.84 96.02-2.10 95.58-1.57C95.14-1.04 94.48-0.78 93.60-0.78ZM98.84-7.52L98.84 0L103.28 0L103.28-0.81L99.79-0.81L99.79-3.54L102.64-3.54L102.64-4.36L99.79-4.36L99.79-6.72L103.17-6.72L103.17-7.52ZM104.88-7.52L104.88 0L105.78 0L105.78-3.93C105.78-4.33 105.77-4.72 105.74-5.12C105.72-5.51 105.69-5.90 105.66-6.28L105.70-6.28L106.52-4.73L109.24 0L110.23 0L110.23-7.52L109.33-7.52L109.33-3.63C109.33-3.24 109.34-2.83 109.37-2.42C109.39-2.02 109.42-1.62 109.44-1.24L109.39-1.24L108.58-2.80L105.86-7.52ZM113.85-6.72L113.85 0L114.82 0L114.82-6.72L117.08-6.72L117.08-7.52L111.58-7.52L111.58-6.72ZM120.75-7.52L120.75 0L125.20 0L125.20-0.81L121.70-0.81L121.70-3.54L124.56-3.54L124.56-4.36L121.70-4.36L121.70-6.72L125.09-6.72L125.09-7.52ZM128.12-3.89L125.93 0L126.94 0L128.03-2.03C128.12-2.21 128.22-2.40 128.32-2.60C128.42-2.79 128.52-3.00 128.63-3.23L128.67-3.23C128.80-3.00 128.91-2.79 129.01-2.60C129.11-2.40 129.22-2.21 129.31-2.03L130.42 0L131.47 0L129.28-3.84L131.33-7.52L130.32-7.52L129.33-5.59C129.23-5.42 129.15-5.25 129.07-5.08C128.99-4.92 128.89-4.73 128.79-4.50L128.74-4.50C128.63-4.73 128.53-4.92 128.44-5.08C128.35-5.25 128.26-5.42 128.16-5.59L127.14-7.52L126.08-7.52ZM132.67-7.52L132.67 0L133.62 0L133.62-2.98L134.98-2.98C135.39-2.98 135.77-3.03 136.11-3.12C136.45-3.22 136.74-3.36 136.98-3.55C137.23-3.74 137.42-3.98 137.55-4.28C137.68-4.57 137.75-4.91 137.75-5.31C137.75-5.72 137.68-6.07 137.55-6.35C137.42-6.63 137.23-6.86 136.99-7.03C136.75-7.20 136.46-7.33 136.11-7.40C135.77-7.48 135.39-7.52 134.98-7.52ZM134.86-3.76L133.62-3.76L133.62-6.75L134.86-6.75C135.51-6.75 136.00-6.65 136.32-6.44C136.64-6.23 136.80-5.85 136.80-5.31C136.80-4.77 136.64-4.38 136.32-4.13C136.01-3.88 135.52-3.76 134.86-3.76ZM139.28-7.52L139.28 0L143.72 0L143.72-0.81L140.23-0.81L140.23-3.54L143.08-3.54L143.08-4.36L140.23-4.36L140.23-6.72L143.61-6.72L143.61-7.52ZM146.27-3.95L146.27-6.75L147.53-6.75C148.12-6.75 148.57-6.65 148.88-6.45C149.19-6.25 149.35-5.91 149.35-5.41C149.35-4.92 149.19-4.56 148.88-4.32C148.57-4.07 148.12-3.95 147.53-3.95ZM149.44 0L150.52 0L148.62-3.28C149.13-3.41 149.54-3.65 149.84-4.00C150.15-4.35 150.30-4.82 150.30-5.41C150.30-5.80 150.24-6.13 150.11-6.40C149.98-6.66 149.80-6.88 149.56-7.05C149.33-7.22 149.05-7.34 148.73-7.41C148.40-7.48 148.05-7.52 147.67-7.52L145.32-7.52L145.32 0L146.27 0L146.27-3.17L147.63-3.17ZM151.98-7.52L151.98 0L152.93 0L152.93-7.52ZM154.99-7.52L154.99 0L159.44 0L159.44-0.81L155.94-0.81L155.94-3.54L158.80-3.54L158.80-4.36L155.94-4.36L155.94-6.72L159.32-6.72L159.32-7.52ZM161.03-7.52L161.03 0L161.94 0L161.94-3.93C161.94-4.33 161.92-4.72 161.90-5.12C161.87-5.51 161.84-5.90 161.81-6.28L161.86-6.28L162.67-4.73L165.40 0L166.38 0L166.38-7.52L165.48-7.52L165.48-3.63C165.48-3.24 165.49-2.83 165.52-2.42C165.54-2.02 165.57-1.62 165.59-1.24L165.55-1.24L164.73-2.80L162.02-7.52ZM168.01-3.76C168.01-3.15 168.09-2.60 168.26-2.11C168.42-1.63 168.65-1.22 168.94-0.89C169.24-0.56 169.59-0.30 169.99-0.13C170.39 0.05 170.83 0.14 171.30 0.14C171.78 0.14 172.21 0.04 172.58-0.15C172.96-0.34 173.29-0.61 173.59-0.95L173.05-1.54C172.81-1.27 172.55-1.06 172.28-0.92C172.01-0.77 171.69-0.70 171.32-0.70C170.96-0.70 170.64-0.77 170.35-0.92C170.07-1.06 169.83-1.27 169.63-1.54C169.43-1.80 169.27-2.13 169.16-2.50C169.05-2.88 169.00-3.31 169.00-3.78C169.00-4.25 169.05-4.67 169.17-5.04C169.28-5.42 169.44-5.74 169.65-6.00C169.86-6.26 170.10-6.47 170.39-6.61C170.69-6.75 171.01-6.82 171.37-6.82C171.69-6.82 171.97-6.76 172.21-6.63C172.45-6.50 172.67-6.33 172.87-6.12L173.41-6.73C173.19-6.97 172.90-7.19 172.56-7.38C172.22-7.56 171.82-7.66 171.36-7.66C170.88-7.66 170.43-7.57 170.02-7.39C169.61-7.21 169.26-6.95 168.96-6.61C168.66-6.28 168.43-5.87 168.26-5.39C168.09-4.91 168.01-4.36 168.01-3.76ZM174.99-7.52L174.99 0L179.44 0L179.44-0.81L175.94-0.81L175.94-3.54L178.80-3.54L178.80-4.36L175.94-4.36L175.94-6.72L179.32-6.72L179.32-7.52Z" transform="translate(-0.32093734080489034, 7.656647987773812)"></path></g></g></g></g><defs v-gra="od"></defs></svg>